<svg xmlns="http://www.w3.org/2000/svg" width="611.9" height="401" viewBox="0 0 611.9 401">
    <defs>
        <style>
            .eyes{
            animation: eyes 5s linear infinite;
            }
            .eyes+.eyes{
            animation: eyes2 5s linear infinite;
            }
            @keyframes eyes{
            50%{
            transform: translateX(3%)
            }
            }

            @keyframes eyes2{
            50%{
            transform: translateX(-3%)
            }
            }


            .mouth{
            animation: mouth 6s linear infinite;
            }
            @keyframes mouth{
            50%{
            transform: translateY(7%)
            }
            }
            .warnings{
            animation: warning 1s linear infinite;
            }
            .warnings+.warnings{
            animation-delay: .5s;
            }
            .warnings+.warnings+.warnings{
            animation-delay: .75s;
            }
            @keyframes warning{
            100%{
            opacity: 0;
            }
            }
            .cogs{
            animation: cogs 3s linear infinite;
            }
            .cogs+.cogs{
            animation-delay: 1.5s;
            }
            .cogs+.cogs+.cogs{
            animation-delay: 3.75s;
            }
            @keyframes cogs{
            40%{
            transform: rotate(3deg) translateY(1%)
            }
            80%{
            transform: rotate(3deg) translateY(1%) translateX(1%)
            }
            }
            .cls-1 {
            fill: #ebebeb;
            }

            .cls-2 {
            fill: #dbdbdb;
            }

            .cls-3 {
            fill: #fff;
            }

            .cls-4 {
            fill: #c7c7c7;
            }

            .cls-5 {
            fill: #263238;
            }

            .cls-6 {
            fill: #eb9481;
            }

            .cls-7 {
            fill: #a6a6a6;
            }

            .cls-8 {
            fill: #37474f;
            }

            .cls-9 {
            fill: #ffc727;
            }

            .cls-10, .cls-13, .cls-14 {
            fill: none;
            }

            .cls-10 {
            stroke: #f5a79e;
            stroke-linecap: round;
            stroke-linejoin: round;
            stroke-width: 0;
            }

            .cls-11 {
            fill: #ff99ba;
            }

            .cls-12 {
            opacity: 0.1;
            }

            .cls-13, .cls-14 {
            stroke: #263238;
            stroke-miterlimit: 10;
            }

            .cls-14 {
            stroke-dasharray: 4 4;
            }

            .cls-15 {
            fill: #455a64;
            }

            .cls-16 {
            fill: #aa8501;
            }
        </style>
    </defs>
    <g id="Layer_2" data-name="Layer 2">
        <g id="Background_Complete" data-name="Background Complete">
            <g>
                <polygon class="cls-1"
                         points="601.3 94.5 591.8 140.9 585.6 134.9 575.1 142.4 567.1 132.4 549.1 145.5 533.8 119.8 516.7 129.8 509.9 120.5 488.1 132.7 481.6 118.7 496.8 44.9 578.6 61.8 601.3 94.5"/>
                <polygon class="cls-2" points="578.6 61.8 601.3 94.5 573 88.7 578.6 61.8"/>
                <polygon class="cls-1"
                         points="589.7 150.1 575.7 218.1 465.6 195.4 479.6 128 486.1 142 507.9 129.7 514.6 139.1 531.8 129.1 547.1 154.7 565.1 141.7 573.1 151.6 583.6 144.1 589.7 150.1"/>
            </g>
            <g>
                <polygon class="cls-1" points="432.2 142.2 320.1 149.1 311.2 5.2 394.4 0 425 25.6 432.2 142.2"/>
                <polygon class="cls-2" points="394.4 0 425 25.6 396.1 27.4 394.4 0"/>
                <path class="cls-2"
                      d="M363.3,96.9l-.4-3.3c-1.1-6.7.7-14.2,6.6-22.1s8.1-12,7.8-17.7-4.6-10.4-12.5-10.1a21.6,21.6,0,0,0-12.5,4.6l-3.4-7.7c3.9-3.3,11-5.7,17.6-6.1,14.4-.8,21.5,7.8,22,17.3s-4,14.9-9.6,22.4-6.8,12.5-6.1,18.9l.3,3.2Zm-1.7,17.7c-.3-4.7,2.7-8.1,7-8.3s7.6,2.8,7.9,7.4-2.5,8-7.1,8.2S361.8,119,361.6,114.6Z"/>
            </g>
            <g>
                <path class="cls-1 cogs"
                      d="M82.9,72.4,71.6,67.3,70,70.7a2.9,2.9,0,0,1-2.6,1.7l-1.8.2a3,3,0,0,1-2.9-1.2l-2.2-3.1-10,7.3,2.2,3.1a2.9,2.9,0,0,1,.2,3,13,13,0,0,0-.8,1.7,2.8,2.8,0,0,1-2.4,1.9l-3.8.4L47.1,98l3.8-.4A3,3,0,0,1,53.6,99l.6.8.5.7a2.8,2.8,0,0,1,.4,3L53.6,107l11.2,5.1,1.6-3.4A3,3,0,0,1,69,107l1.8-.2a3,3,0,0,1,2.9,1.2l2.2,3.1L86,103.8l-2.3-3.1a2.9,2.9,0,0,1-.2-3,13,13,0,0,0,.8-1.7,3,3,0,0,1,2.5-1.9l3.7-.4L89.3,81.4l-3.8.4a3,3,0,0,1-2.7-1.4,3.5,3.5,0,0,1-.5-.8l-.6-.7a2.9,2.9,0,0,1-.4-3.1ZM76.5,83.8a10.1,10.1,0,0,1-2.4,14.1A10,10,0,0,1,60,95.6,10.1,10.1,0,1,1,76.5,83.8Z"/>
                <path class="cls-1 cogs"
                      d="M592.8,236l-7.6,4.3,1.4,2.3a2.2,2.2,0,0,1-.1,2.2,3.9,3.9,0,0,0-.6,1.1A2.1,2.1,0,0,1,584,247h-2.6v8.7H584a2.2,2.2,0,0,1,1.9,1.2,6,6,0,0,0,.6,1.1,2.2,2.2,0,0,1,.1,2.2l-1.4,2.3,7.6,4.3,1.3-2.3a1.9,1.9,0,0,1,1.9-1h1.3a1.9,1.9,0,0,1,1.9,1l1.3,2.3,7.6-4.3-1.4-2.3a2.2,2.2,0,0,1,.1-2.2,6,6,0,0,0,.6-1.1,2.2,2.2,0,0,1,1.9-1.2h2.6V247h-2.6a2.1,2.1,0,0,1-1.9-1.1,6,6,0,0,0-.6-1.1,2.2,2.2,0,0,1-.1-2.2l1.4-2.3-7.6-4.3-1.3,2.3a2.1,2.1,0,0,1-1.9,1H596a2.1,2.1,0,0,1-1.9-1Zm3.8,8.3a7.1,7.1,0,1,1-7.1,7.1A7.1,7.1,0,0,1,596.6,244.3Z"/>
                <path class="cls-1 cogs"
                      d="M105.7,35.4l-6.9,5.3,1.6,2.1a2.2,2.2,0,0,1,.2,2.2l-.5,1.2a2.1,2.1,0,0,1-1.7,1.3l-2.6.4,1.1,8.6,2.7-.4a2.1,2.1,0,0,1,1.9.9l.8,1.1a2,2,0,0,1,.4,2.1l-1.1,2.5,8.1,3.3,1-2.5a2,2,0,0,1,1.8-1.2h1.2a1.9,1.9,0,0,1,2,.8l1.7,2.1,6.9-5.3-1.7-2.1a2.4,2.4,0,0,1-.2-2.2,3.7,3.7,0,0,0,.5-1.1,2,2,0,0,1,1.7-1.4l2.6-.4-1.1-8.6-2.6.4a2.2,2.2,0,0,1-2-.9,3.9,3.9,0,0,0-.8-1,2.2,2.2,0,0,1-.3-2.2l1-2.4-8-3.4-1,2.5a2,2,0,0,1-1.8,1.2h-1.3a2,2,0,0,1-2-.8Zm4.9,7.8a7.1,7.1,0,0,1,8,6.1,7.2,7.2,0,0,1-6.2,8,7.1,7.1,0,0,1-7.9-6.2A7,7,0,0,1,110.6,43.2Z"/>
            </g>
            <g>
                <g>
                    <path class="cls-1"
                          d="M54.2,261a281,281,0,0,0-.4-29,368.6,368.6,0,0,0-9.1-59.1c-2.5-11-5.7-21.7-8.9-32.5-.1-.3-.6-.2-.5.1,10,37.9,18.3,77,17.7,116.4-.1,11-1.4,21.9-2.5,32.8a.3.3,0,0,0,.6.1C53.1,280.4,53.8,270.6,54.2,261Z"/>
                    <path class="cls-1"
                          d="M35.3,140.5S20,179.2,23.4,188.3s10.5,11,10.5,11-9.3,13.4-2.8,25.8S52.1,237,53,251.2C53,251.2,53.8,192,35.3,140.5Z"/>
                    <path class="cls-3"
                          d="M51.4,226.8v-.2c-2.2-26.4-6.8-52.6-14.8-77.9h-.1c3,11.4,5.7,22.7,8,34.2a17.1,17.1,0,0,0-7.3-4.1c-.1,0-.1.1,0,.1a19,19,0,0,1,7.5,5c.4,2.3.8,4.5,1.3,6.8-3.4-3.9-8.2-5.7-12.9-7.5-.1-.1-.1,0,0,.1,4.9,2,9.8,4.6,13.1,8.8,1.2,6.4,2.2,12.9,3.1,19.3a18.9,18.9,0,0,0-9.1-5.2c-.1,0-.2.1-.1.2a18.4,18.4,0,0,1,9.3,5.9h0l.9,6.9a23.4,23.4,0,0,0-6.4-3.9c-.1,0-.1.1,0,.1a24.4,24.4,0,0,1,6.4,4.2h0c.3,2.1.5,4.3.8,6.5a31.8,31.8,0,0,0-13-9.3c-.1,0-.1.2,0,.2a34.8,34.8,0,0,1,12.7,9.8h.3c.4,3.3.7,6.7.9,10h.1C51.9,233.6,51.7,230.2,51.4,226.8Z"/>
                    <path class="cls-3"
                          d="M39.1,175a19.5,19.5,0,0,0-9.1-2.9c-.1,0-.1.1,0,.1a36.6,36.6,0,0,1,9,3C39.1,175.2,39.2,175.1,39.1,175Z"/>
                    <path class="cls-3"
                          d="M41,215.9a20.8,20.8,0,0,0-6.9-2.3c-.1,0-.1.1,0,.1a27.5,27.5,0,0,1,6.8,2.4C41,216.2,41.1,216,41,215.9Z"/>
                </g>
                <g>
                    <path class="cls-1"
                          d="M94.3,188.9a104.7,104.7,0,0,0-17.7,15.5,63.1,63.1,0,0,0-12.3,20.9A157,157,0,0,0,55,275.5a122.4,122.4,0,0,0,2.8,28.3c0,.3.5.2.5-.1a157.4,157.4,0,0,1,.3-49.4c2.6-16,6.7-33.4,16.9-46.4,5.5-7.1,12.4-12.7,19.2-18.4C95.1,189.2,94.6,188.7,94.3,188.9Z"/>
                    <path class="cls-1"
                          d="M57.3,264a93.8,93.8,0,0,1,12.8-16.4c7.7-7.7,14.1-13.1,15.1-18.1s-7.7-8.8-7.7-8.8,10.6,1.9,13.5-2.5,4.3-30.1,4.3-30.1S76.1,201.8,67.1,221,57.3,264,57.3,264Z"/>
                    <path class="cls-3"
                          d="M88.6,194.7c-8.1,7.9-16.2,16.4-20.9,26.8a87.8,87.8,0,0,0-4.3,11.1h0c-.2.7-.5,1.5-.7,2.3h-.1a219.1,219.1,0,0,0-5.4,23.7s.1.1.1,0c.8-4,1.7-8,2.7-12.1h.1a18.2,18.2,0,0,1,5.1-1.3c.1,0,.1-.2,0-.2a21,21,0,0,0-5,.9c.9-3.6,1.9-7.2,3.1-10.8a53.9,53.9,0,0,1,11.4-1.5h0a41.7,41.7,0,0,0-11.2.9l.6-1.8a48.3,48.3,0,0,1,7.6-1.3h-.1a37.4,37.4,0,0,0-7.4.9c1.1-3.1,2.2-6.1,3.5-9.1a42,42,0,0,1,3.6-7,41,41,0,0,1,6.1-1.1c.1,0,.1-.1,0-.1a15.6,15.6,0,0,0-5.7.5,48.7,48.7,0,0,1,3.2-4.7h0c4.3-1,8.7-1.9,13.1-1.1,0,.1.1-.1,0-.1-4.2-1.1-8.4-.5-12.5.4l1.3-1.8a31.9,31.9,0,0,1,8.1-1.3s.1-.1,0-.1a21.1,21.1,0,0,0-7.5.7c3.6-4.4,7.5-8.6,11.4-12.7C89,194.6,88.8,194.5,88.6,194.7Z"/>
                    <path class="cls-3"
                          d="M88.4,212.2a16.2,16.2,0,0,0-3.8-.2c-.2.1-.1.3,0,.3h3.8C88.5,212.3,88.5,212.2,88.4,212.2Z"/>
                    <path class="cls-3"
                          d="M74.6,237.1a17.1,17.1,0,0,0-5.9,1.1c-.1.1,0,.1,0,.1l5.9-.9C74.8,237.3,74.8,237.1,74.6,237.1Z"/>
                    <path class="cls-3"
                          d="M70.4,228.5a10.6,10.6,0,0,0-2.5.2h0a7.5,7.5,0,0,0,2.6-.1C70.6,228.7,70.6,228.5,70.4,228.5Z"/>
                </g>
                <g>
                    <path class="cls-1"
                          d="M1,216.2a82.8,82.8,0,0,1,17.8,8.4,52.7,52.7,0,0,1,14.9,14.1,132,132,0,0,1,19.1,38.5,103.6,103.6,0,0,1,4.3,23.5c0,.2-.4.3-.5,0A132.6,132.6,0,0,0,45,260.8c-5.8-12.3-13.2-25.5-24.4-33.6-6.1-4.5-13-7.4-19.9-10.5A.3.3,0,1,1,1,216.2Z"/>
                    <path class="cls-1"
                          d="M48.3,268.4A79.1,79.1,0,0,0,34.1,258c-8-4.4-14.4-7.3-16.4-11.1s4.2-8.9,4.2-8.9-8.1,4-11.5,1.1S0,215.7,0,215.7s18.7,6.7,30.4,20.2S48.3,268.4,48.3,268.4Z"/>
                    <path class="cls-3"
                          d="M47.3,264.2c-9.3-17.6-21.8-33.5-38.9-44h0A91.5,91.5,0,0,1,20.9,230a20.6,20.6,0,0,0-10.1,2.1c0,.1,0,.2.1.2a26,26,0,0,1,10.3-1.8h.1l1.8,1.7a30.7,30.7,0,0,0-5.3.7c-.1,0-.1.1,0,.1a26.9,26.9,0,0,1,5.7-.5c3.1,3.2,6,6.6,8.8,10.1a9.7,9.7,0,0,0-3.8.2.1.1,0,0,0,0,.2,18.8,18.8,0,0,1,4.1-.1l1.5,2A33.8,33.8,0,0,0,22.7,246h.1a45.1,45.1,0,0,1,11.6-.8l1.4,1.9a25.1,25.1,0,0,0-6.7.8c-.1,0-.1.2,0,.1a27.2,27.2,0,0,1,7-.5c2,2.8,3.9,5.6,5.8,8.5a7.6,7.6,0,0,0-3,.1h0a11.5,11.5,0,0,1,3.2.2q2.5,3.9,4.8,7.8C47.1,264.6,47.4,264.4,47.3,264.2Z"/>
                    <path class="cls-3"
                          d="M32.8,249.6a12.9,12.9,0,0,0-5.5.7h0a49.3,49.3,0,0,1,5.4-.5C32.9,249.8,32.9,249.6,32.8,249.6Z"/>
                    <path class="cls-3"
                          d="M16.4,228.2a10.7,10.7,0,0,0-2.5.1c-.1,0,0,.2.1.2h2.4C16.6,228.4,16.6,228.2,16.4,228.2Z"/>
                </g>
                <g>
                    <g>
                        <polygon class="cls-2"
                                 points="72.4 326.4 30.2 326.4 36.2 282.3 37.8 271 64.9 271 66.4 282.3 72.4 326.4"/>
                        <polygon class="cls-4" points="66.4 282.3 36.2 282.3 37.8 271 64.9 271 66.4 282.3"/>
                    </g>
                    <rect class="cls-2" x="33.9" y="267.1" width="34.9" height="9.58"/>
                </g>
            </g>
        </g>
        <g id="Floor">
            <polygon class="cls-5"
                     points="3.3 326.4 79.4 326.2 155.4 326.1 307.4 325.9 459.4 326.1 535.4 326.2 611.4 326.4 535.4 326.7 459.4 326.8 307.4 326.9 155.4 326.8 79.4 326.7 3.3 326.4"/>
        </g>
        <g id="Shadow">
            <ellipse class="cls-1" cx="309.4" cy="369.6" rx="286.7" ry="31.4"/>
        </g>
        <g id="Character">
            <g>
                <g>
                    <g>
                        <g>
                            <path class="cls-6"
                                  d="M242.6,364.4c-2.3.7-69.1,1-71.7-.6-.9-.6-1.5-10.4-1.9-22.1l-.3-7.9-5.4-35.6,44.7-.3,4.2,35.7-.2,7.8s25.7,11.3,28.3,13.4S245,363.6,242.6,364.4Z"/>
                            <path class="cls-3"
                                  d="M242.6,364.4c-2.3.7-69.1,1-71.7-.6-1.1-.8-1.8-15-2.2-30l43.5-.2-.2,7.8s25.7,11.3,28.3,13.4S245,363.6,242.6,364.4Z"/>
                            <g>
                                <path class="cls-7"
                                      d="M242.6,364.4c-2.3.7-69.1,1-71.7-.6-.9-.6-1.5-10.4-1.9-22.1l43-.3s25.7,11.3,28.3,13.4S245,363.6,242.6,364.4Z"/>
                                <g>
                                    <g>
                                        <path class="cls-5"
                                              d="M241.7,361.7c-11.2-.3-56.4-.1-67.5.5h0c11.1.5,56.3,0,67.5-.3C241.9,361.9,241.9,361.7,241.7,361.7Z"/>
                                        <path class="cls-5"
                                              d="M236,352.4a8.9,8.9,0,0,0-6.7,2.8,8.5,8.5,0,0,0-2.5,6h.1a10.4,10.4,0,0,1,9.1-8.6C236.1,352.5,236.1,352.4,236,352.4Z"/>
                                        <path class="cls-5"
                                              d="M216.4,342.5c-4.5-.1-9.7,1.5-12.5,5.2-.1.2.1.3.3.2a65.7,65.7,0,0,1,12.3-4.9C216.8,343,216.7,342.5,216.4,342.5Z"/>
                                        <path class="cls-5"
                                              d="M219.9,343.8c-4.5,0-9.7,1.6-12.5,5.3-.1.1.1.3.2.2a61.9,61.9,0,0,1,12.3-4.9C220.2,344.3,220.2,343.8,219.9,343.8Z"/>
                                        <path class="cls-5"
                                              d="M223.3,345.2c-4.5-.1-9.7,1.5-12.4,5.2-.1.1.1.3.2.2a59.6,59.6,0,0,1,12.3-4.9A.3.3,0,0,0,223.3,345.2Z"/>
                                        <path class="cls-5"
                                              d="M226.8,346.5c-4.5,0-9.7,1.6-12.5,5.2-.1.2.1.3.3.3a59.6,59.6,0,0,1,12.3-4.9A.3.3,0,0,0,226.8,346.5Z"/>
                                        <path class="cls-5" d="M177,351.5c-5,.1-5,7.9,0,7.8S182,351.5,177,351.5Z"/>
                                    </g>
                                    <path class="cls-5"
                                          d="M221.2,330.5c-2.3-1.9-5.1,0-6.5,1.9a24.2,24.2,0,0,0-4.1,11.5.2.2,0,0,0,.2.2.6.6,0,0,0,.8.3c3.2-2.2,6.8-4.2,9.3-7.3S223.3,332.3,221.2,330.5Zm-5.5,9.6c-1.5,1.1-3.1,2.1-4.6,3.3.8-2.2,1.5-4.5,2.5-6.6a30.1,30.1,0,0,1,1.6-3.1c1-1.4,5.4-5.2,5.9-.3C221.3,336.1,217.6,338.7,215.7,340.1Z"/>
                                    <path class="cls-5"
                                          d="M199.5,345.6c3.9.6,7.9-.5,11.8-1.1a.5.5,0,0,0,.3-.8c.1-.1.1-.2,0-.2a22.2,22.2,0,0,0-10.9-5.5c-2.3-.5-5.6.2-6,3.1S197.2,345.3,199.5,345.6Zm-2.7-2.5c-3.1-3.9,2.7-4.2,4.4-3.8l3.3,1.1c2.2.8,4.3,2,6.4,3l-5.6.8C203,344.5,198.5,345.2,196.8,343.1Z"/>
                                </g>
                            </g>
                        </g>
                        <g>
                            <path class="cls-8"
                                  d="M97.7,133.5s51.9,88.2,53.3,94.4c2.1,9.5,13.4,103.5,13.4,103.5l54-.9s-9.3-82.9-18.1-110.2c-6.4-19.7-52.2-84.9-52.2-84.9Z"/>
                            <g>
                                <path class="cls-5"
                                      d="M213.5,322.2c-7.8-.1-35.2-.4-45.6.6h0c3.6.5,37.8-.2,45.6-.5C213.6,322.4,213.6,322.2,213.5,322.2Z"/>
                                <path class="cls-5"
                                      d="M106.6,141.6c3.4,5.3,6.9,10.5,10.4,15.8s7,10.6,10.4,15.9c6.8,10.6,13.5,21.4,20,32.2a97.2,97.2,0,0,1,8.1,15.7,90.6,90.6,0,0,1,4.5,17c1.1,5.8,1.8,11.6,2.4,17.5l2.1,18.6c1.5,12.8,2.9,25.5,4.3,38.3.2,1.5.3,3.1.5,4.7s-.4.2-.4,0c-1.6-12.7-2.9-25.4-4.4-38l-2.1-19c-.7-5.8-1.3-11.7-2.2-17.5a119.7,119.7,0,0,0-3.8-17,81.9,81.9,0,0,0-7.5-16.5c-6.3-10.8-12.9-21.4-19.5-32S116,156,109,145.5c-.9-1.3-1.7-2.6-2.6-3.8S106.5,141.5,106.6,141.6Z"/>
                            </g>
                        </g>
                    </g>
                    <g>
                        <g>
                            <path class="cls-6"
                                  d="M114.7,369.6c-2.5-.2-66-25.9-67.8-28.4,0-.1-.1-.2-.1-.4,0-2.2,4.4-9.9,8.1-19.9.3-.7,1.9-3.6,4.2-7.6,6.2-11.1,17.3-30,17.3-30l41.5,16.5L98.1,329.6,95,336.8s19.4,20.1,21.1,23S117.2,369.7,114.7,369.6Z"/>
                            <path class="cls-3"
                                  d="M114.7,369.6c-2.5-.2-66-25.9-67.8-28.4,0-.1-.1-.2-.1-.4,0-2.2,4.4-9.9,8.1-19.9.3-.7,1.9-3.6,4.2-7.6l39,16.3L95,336.8s19.4,20.1,21.1,23S117.2,369.7,114.7,369.6Z"/>
                            <g>
                                <path class="cls-7"
                                      d="M114.7,369.6c-2.5-.2-66-25.9-67.8-28.4-.6-.9,2.2-9.6,8-20.3L95,336.8s19.4,20.1,21.1,23S117.2,369.7,114.7,369.6Z"/>
                                <g>
                                    <g>
                                        <path class="cls-5"
                                              d="M114.8,366.7c-10.3-4.4-52.2-21.3-62.7-24.8H52c10.1,4.6,52.2,21.1,62.7,25C115,367,115,366.8,114.8,366.7Z"/>
                                        <path class="cls-5"
                                              d="M113,356a9,9,0,0,0-7.2,0,8.8,8.8,0,0,0-4.6,4.7s.1.1.1,0a10.6,10.6,0,0,1,11.6-4.6C113,356.1,113.1,356,113,356Z"/>
                                        <path class="cls-5"
                                              d="M98.6,339.4c-4.2-1.7-9.6-2.1-13.5.2-.2.1,0,.3.1.3a64.7,64.7,0,0,1,13.2.1A.3.3,0,0,0,98.6,339.4Z"/>
                                        <path class="cls-5"
                                              d="M101.3,342c-4.2-1.7-9.6-2.2-13.5.2-.2.1,0,.3.1.3a59.2,59.2,0,0,1,13.3,0C101.5,342.6,101.6,342.1,101.3,342Z"/>
                                        <path class="cls-5"
                                              d="M104,344.5c-4.1-1.7-9.6-2.2-13.5.2-.2.1,0,.3.1.3a65.7,65.7,0,0,1,13.3.1A.3.3,0,0,0,104,344.5Z"/>
                                        <path class="cls-5"
                                              d="M106.7,347.1c-4.1-1.8-9.5-2.2-13.5.1a.2.2,0,0,0,.1.3,65.7,65.7,0,0,1,13.3.1A.3.3,0,0,0,106.7,347.1Z"/>
                                        <path class="cls-5"
                                              d="M58.7,333c-4.7-1.8-7.6,5.4-2.9,7.3S63.3,334.9,58.7,333Z"/>
                                    </g>
                                    <path class="cls-5"
                                          d="M107.5,330.1c-1.4-2.5-4.7-1.9-6.7-.6a23.7,23.7,0,0,0-8.1,9.1c0,.1,0,.2.1.2s.2.7.6.6c3.8-.8,7.9-1.3,11.3-3.3S108.9,332.6,107.5,330.1Zm-8.6,6.8-5.6,1.4c1.6-1.8,3.1-3.6,4.8-5.2a18.6,18.6,0,0,1,2.7-2.2c1.4-1,6.9-2.9,5.5,1.8C105.5,335.3,101.1,336.4,98.9,336.9Z"/>
                                    <path class="cls-5"
                                          d="M81.7,336c3.4,2,7.6,2.5,11.4,3.4.4.1.6-.3.6-.7h.1a24.5,24.5,0,0,0-8-9.2c-2.1-1.3-5.4-1.9-6.8.6S79.8,334.8,81.7,336Zm-1.5-3.4c-1.4-4.7,4.1-2.8,5.5-1.8s1.8,1.5,2.7,2.2,3.2,3.5,4.8,5.3a57.3,57.3,0,0,0-5.6-1.4C85.4,336.3,80.9,335.2,80.2,332.6Z"/>
                                </g>
                            </g>
                        </g>
                        <g>
                            <path class="cls-8"
                                  d="M101.3,327.9,54.8,309.2s57.6-84.8,58-91.1-24.9-54.2-25.9-68.4,6.3-27.1,14.4-34.5l47.9,20.4s-5,8.1-13,12.6c0,0,24.6,56.2,23.2,73.5S101.3,327.9,101.3,327.9Z"/>
                            <g>
                                <path class="cls-5"
                                      d="M103.3,319.1c-6.7-2.9-4.7-2.2-11.5-5-3.3-1.4-25-10.4-28.3-11.1-.1-.1-.1.1-.1.1,2.9,1.8,24.8,10.4,28.1,11.7l11.7,4.5C103.4,319.3,103.4,319.1,103.3,319.1Z"/>
                                <g>
                                    <path class="cls-5"
                                          d="M144.1,147.2a92,92,0,0,0-14.6,4.7c-.2.1-.1.4.1.3,4.9-1.4,9.9-2.7,14.7-4.4A.3.3,0,1,0,144.1,147.2Z"/>
                                    <path class="cls-5"
                                          d="M138.4,145.2a15.1,15.1,0,0,0-1.2,2.6,5.7,5.7,0,0,0-.7,2.2h.3a5.1,5.1,0,0,0,1.2-2c.4-.8.9-1.6,1.2-2.4S138.7,144.7,138.4,145.2Z"/>
                                    <path class="cls-5"
                                          d="M139,140.7l.9-2.2a15.7,15.7,0,0,0,.9-2.3c.1-.1.3,0,.2.1a20.2,20.2,0,0,0-.7,2.3c-.2.8-.5,1.5-.7,2.3s-1.1,2.8-1.7,4.2a5.9,5.9,0,0,0,2.3-.4,3.5,3.5,0,0,0,1.6-2c.5-.8.9-1.7,1.3-2.5a14.3,14.3,0,0,0,1.3-2.8c.1-.1.3,0,.2.1a30.7,30.7,0,0,1-2.5,5.9c-.5.8-.8,1.5-1.7,1.8a6.1,6.1,0,0,1-2.7.2c-.1,0-.3,0-.2-.2A39.6,39.6,0,0,1,139,140.7Z"/>
                                </g>
                                <path class="cls-5"
                                      d="M136.9,150.1c1.7,3.6,3.2,7.2,4.8,10.8s3.1,7.1,4.5,10.6c2.8,7.3,5.4,14.6,7.6,22.1,1.2,3.6,2.2,7.3,3.1,11.1a85.1,85.1,0,0,1,2.2,11.4,30.8,30.8,0,0,1-.9,11.3,70.3,70.3,0,0,1-4.3,10.7c-1,2.1-1.4,1.8-.9.8,1.5-3.1,5.2-12.5,4.9-20.4a61.7,61.7,0,0,0-1.7-11.3c-.9-3.8-1.9-7.5-3-11.2-2.1-7.4-4.6-14.6-7.2-21.7-1.5-4.1-3.1-8-4.6-12.1s-3-7.6-4.6-12.1Z"/>
                                <path class="cls-5"
                                      d="M101.6,138.1c.9-.3,2,.2,2.9.4l3.3.3H111a7.2,7.2,0,0,0,3.2-.8,16.4,16.4,0,0,0,4-4.3,26.1,26.1,0,0,0,3.1-5.4c0-.1.2-.1.2.1s-.7,2.2-1.1,3.3a26.4,26.4,0,0,1-1.5,2.9c-1.1,1.8-2.3,3.7-4.2,4.7s-4.4,1.1-6.5.9a15,15,0,0,1-3.7-.5c-.9-.1-2.4-.3-3-1.1S101.5,138.2,101.6,138.1Z"/>
                                <path class="cls-5"
                                      d="M68,300.3c7.7-11.6,15.2-23.2,22.5-35s14.7-23.6,21.8-35.5c1.7-2.9,3.7-5.7,4.8-8.9s.5-6.7-.6-10.1a164.1,164.1,0,0,0-7.1-18c-2.7-5.9-5.6-11.8-8.4-17.6a187.7,187.7,0,0,1-8-17.7c-2-5.8-2.8-11.8-1.2-17.8s4.9-11.3,8.4-16.4l2.8-3.9c.1-.1.2,0,.2.1-3.9,5.2-7.7,10.8-9.9,16.9a27.8,27.8,0,0,0-2,9.4,31.8,31.8,0,0,0,1.6,9.7c1.8,6.1,4.8,11.9,7.6,17.6s5.7,11.6,8.4,17.5a167.5,167.5,0,0,1,7.4,18.1,25.7,25.7,0,0,1,2,8.6c-.1,3.2-1.6,6.1-3.2,8.9-7,11.8-14.2,23.5-21.5,35.2s-14.8,23.2-22.4,34.8l-2.9,4.3C68.2,300.7,67.9,300.5,68,300.3Z"/>
                            </g>
                        </g>
                    </g>
                </g>
                <g>
                    <g>
                        <path class="cls-6"
                              d="M151.9,81.7c4.3,9.5,26.2,22.6,36.4,24,7.4,1,29.8,1.4,37.4.2s2.2-25.6-3.2-25c-14.6,1.7-27,3.6-30.8,3.6s-30.6-8.2-33.7-9.4C150.4,72.2,149.4,76.3,151.9,81.7Z"/>
                        <g>
                            <path class="cls-9"
                                  d="M152,84.2c5.5,8.2,23.7,21.4,23.7,21.4l2.6-5.6,8.3-18.5s-16.7-5.3-27.7-7.6a21.6,21.6,0,0,0-4-.6C147.9,72.9,147.3,77.3,152,84.2Z"/>
                            <path class="cls-5"
                                  d="M152,84.2c5.5,8.2,23.7,21.4,23.7,21.4l2.6-5.6c-6.8-7.9-17.3-19.8-23.4-26.7C147.9,72.9,147.3,77.3,152,84.2Z"/>
                            <path class="cls-5"
                                  d="M172.4,101.9c1.4-3.4,7.6-17.2,9.1-20,.2-.2.3-.2.2,0-3.9,10.3-7.6,16.7-9.1,20Z"/>
                        </g>
                        <g>
                            <path class="cls-6"
                                  d="M219.9,81.2c8.9-1.2,19.8-3.2,29.2.8a4.4,4.4,0,0,1,2.4,2.1c4.2,1.7,4.7,4.2,4.7,4.2,3.4,2.8,3.6,5.4,3.6,5.4s4.9,2,4.1,5.2-7.5,0-12.4.3c-11.3.7-27.1,4.8-30.3,5.4Z"/>
                            <path class="cls-5"
                                  d="M239.2,91.7a64.1,64.1,0,0,1,9.8-.1,62.3,62.3,0,0,1,10.6,2.2c.2,0,.2-.2.1-.2a37.8,37.8,0,0,0-20.5-2.1C239,91.5,239,91.7,239.2,91.7Z"/>
                            <path class="cls-5"
                                  d="M237.8,84.9a55.5,55.5,0,0,1,18.4,3.5h0a34.5,34.5,0,0,0-18.4-3.5C237.6,84.8,237.5,84.9,237.8,84.9Z"/>
                            <path class="cls-5"
                                  d="M237.1,81.3c5.5.3,8.9,1.2,14.4,2.8h0c-6-2.6-8.5-2.8-14.4-3C236.9,81.1,236.9,81.3,237.1,81.3Z"/>
                            <path class="cls-6"
                                  d="M238,100.9c-1.5.7-1.1,1.4,1.6,2.1s14.1.8,13.7,4.7-16.4,3.5-20.9,2.1a74.9,74.9,0,0,1-11.2-5.2C224.3,104,231.8,102,238,100.9Z"/>
                        </g>
                    </g>
                    <g>
                        <path class="cls-5"
                              d="M163.8,96.9c-.1,1.7-.3,3.4-.5,5.2v-.2a21.5,21.5,0,0,1,1-2.7c.1-.1.1-.1.1,0a14.7,14.7,0,0,1-.8,2.8l-.6,1.2a15.7,15.7,0,0,1-.4,2.3c-.3,1.5-1.6,7.5-1.9,8.6s-.4.1-.3-.1,1.2-7.5,1.4-8.9a57.1,57.1,0,0,1,1.8-8.2C163.7,96.8,163.8,96.8,163.8,96.9Z"/>
                        <g>
                            <path class="cls-9"
                                  d="M153.4,142.3c-2.7,1.4-6.1,3.5-21.6.5l-3-.7c-14.5-4.4-31.9-21.5-32.9-22.7S119,82,148.5,70.2c3.6-1.4,9.7,1.4,13,4.9,1.2,1.2,3.8,10.4,2.8,17.8S156,141,153.4,142.3Z"/>
                            <g>
                                <path class="cls-3"
                                      d="M151.3,92.6a11.1,11.1,0,0,1-.7,4.6,17.7,17.7,0,0,1,.1-2.3A8.6,8.6,0,0,1,151.3,92.6Z"/>
                                <path class="cls-3"
                                      d="M141.2,118.1a8.8,8.8,0,0,1,0,2.3,15.5,15.5,0,0,1-.6,2.3,8.7,8.7,0,0,1,.1-2.3A8.6,8.6,0,0,1,141.2,118.1Z"/>
                                <path class="cls-3"
                                      d="M124.1,98.8a9.7,9.7,0,0,1-.1,2.4,9.5,9.5,0,0,1-.5,2.3,9.6,9.6,0,0,1,0-2.4A19.5,19.5,0,0,1,124.1,98.8Z"/>
                                <path class="cls-3"
                                      d="M157.9,116.8a11.1,11.1,0,0,1-.7,4.6,17.7,17.7,0,0,1,.1-2.3A8.6,8.6,0,0,1,157.9,116.8Z"/>
                                <path class="cls-3"
                                      d="M135.9,95.5a9.7,9.7,0,0,1,2.4.1,6.5,6.5,0,0,1,2.3.6h-2.4A9.8,9.8,0,0,1,135.9,95.5Z"/>
                                <path class="cls-3"
                                      d="M116.5,113.9a9.7,9.7,0,0,1,2.4.1l2.3.6a9.7,9.7,0,0,1-2.4-.1A8.6,8.6,0,0,1,116.5,113.9Z"/>
                                <path class="cls-3"
                                      d="M139.3,133.9h2.4a8.6,8.6,0,0,1,2.3.6,9.7,9.7,0,0,1-2.4-.1A10.6,10.6,0,0,1,139.3,133.9Z"/>
                                <path class="cls-3"
                                      d="M110.5,126.6a9.7,9.7,0,0,1,2.4.1,9.8,9.8,0,0,1,2.3.6h-2.4A9.8,9.8,0,0,1,110.5,126.6Z"/>
                                <path class="cls-3"
                                      d="M151.1,74.7a9.6,9.6,0,0,1,2.4,0,15.5,15.5,0,0,1,2.3.6,9.7,9.7,0,0,1-2.4-.1A10.6,10.6,0,0,1,151.1,74.7Z"/>
                                <path class="cls-3"
                                      d="M145.5,81a9.1,9.1,0,0,1-1.7,1.7,14.3,14.3,0,0,1-2.1,1.2,12.9,12.9,0,0,1,1.8-1.6A13.7,13.7,0,0,1,145.5,81Z"/>
                                <path class="cls-3"
                                      d="M114.7,99.2a12.9,12.9,0,0,1-1.7,1.6,8.2,8.2,0,0,1-2,1.2,12.9,12.9,0,0,1,1.7-1.6A8.2,8.2,0,0,1,114.7,99.2Z"/>
                                <path class="cls-3"
                                      d="M153.2,107.4l-1.8,1.6a13.2,13.2,0,0,1-2,1.2,12.9,12.9,0,0,1,1.7-1.6A8.8,8.8,0,0,1,153.2,107.4Z"/>
                                <path class="cls-3"
                                      d="M128.3,123a9.6,9.6,0,0,1-1.8,1.7,13.2,13.2,0,0,1-2,1.2,6.4,6.4,0,0,1,1.7-1.6Z"/>
                                <path class="cls-3"
                                      d="M162.7,85.9a9.1,9.1,0,0,1-1.7,1.7,14.3,14.3,0,0,1-2.1,1.2,5.5,5.5,0,0,1,1.8-1.6A13.7,13.7,0,0,1,162.7,85.9Z"/>
                                <path class="cls-3"
                                      d="M162.2,104.1a6.4,6.4,0,0,1-1.6-1.7l-1.3-2a9.1,9.1,0,0,1,1.7,1.7A13.2,13.2,0,0,1,162.2,104.1Z"/>
                                <path class="cls-3"
                                      d="M106.7,116.6a8.5,8.5,0,0,1-1.6-1.7,13.7,13.7,0,0,1-1.3-2,9.1,9.1,0,0,1,1.7,1.7A13.2,13.2,0,0,1,106.7,116.6Z"/>
                                <path class="cls-3"
                                      d="M155.4,131.5a12.9,12.9,0,0,1-1.6-1.7,8.2,8.2,0,0,1-1.2-2,12.9,12.9,0,0,1,1.6,1.7A8.2,8.2,0,0,1,155.4,131.5Z"/>
                                <path class="cls-3"
                                      d="M131,89.1a9.3,9.3,0,0,1-1.6-1.8,6.7,6.7,0,0,1-1.2-2,12.9,12.9,0,0,1,1.6,1.7A14.3,14.3,0,0,1,131,89.1Z"/>
                                <path class="cls-3"
                                      d="M131.4,140a12.9,12.9,0,0,1-1.6-1.7,8.8,8.8,0,0,1-1.2-2.1,13.7,13.7,0,0,1,1.6,1.8A8.2,8.2,0,0,1,131.4,140Z"/>
                                <path class="cls-3"
                                      d="M135.6,110a12.9,12.9,0,0,1-1.6-1.8,13.7,13.7,0,0,1-1.3-2,9.1,9.1,0,0,1,1.7,1.7A14.3,14.3,0,0,1,135.6,110Z"/>
                            </g>
                        </g>
                    </g>
                    <g>
                        <g>
                            <path class="cls-6"
                                  d="M156.1,85c-3.8-.7-7.3-8.5-7.7-13.7-.1-.4,1.7-3.2,3.7-6.8s2.5-4.6,3.6-6.9c.2-.5,1.4,1.1,1.4,1.1l2.7,2,8.8,6.8a41.7,41.7,0,0,0-5.3,8.3,3.8,3.8,0,0,0-.3,1,.3.3,0,0,1-.1.2C162.4,78.9,159.7,85.7,156.1,85Z"/>
                            <path class="cls-5"
                                  d="M163,76.8a.3.3,0,0,1-.1.2l-1.5-.6c-9.7-4.6-5.4-17.5-5.4-17.5l3.8,1.8,8.8,6.8a41.7,41.7,0,0,0-5.3,8.3A3.8,3.8,0,0,0,163,76.8Z"/>
                        </g>
                        <g>
                            <path class="cls-5" d="M178.8,39.8s4.4,2.9,4.5,7.9-2,9.8-2.5,10S178.8,39.8,178.8,39.8Z"/>
                            <path class="cls-6"
                                  d="M156.8,42.4c-2.6,5.3-2.5,21.8.8,26.1,4.8,6.2,14.1,8.3,19.7,2.2s4.9-27.5,1.1-31.5C172.7,33.3,160.8,34.7,156.8,42.4Z"/>
                            <path class="cls-10" d="M157.2,68.3h.1"/>
                            <g>
                                <g>
                                    <path class="cls-5"
                                          d="M170.9,55.7h0c0,1.1-.1,2.4-1.1,2.8h0C171,58.5,171.2,56.8,170.9,55.7Z"/>
                                    <path class="cls-5" d="M169.9,54.5c-1.8-.1-1.9,3.6-.2,3.7S171.4,54.6,169.9,54.5Z"/>
                                </g>
                                <g>
                                    <path class="cls-5"
                                          d="M177.1,55.7c0-.1.1,0,.1.1s.1,2.4,1.1,2.8h0C177,58.4,176.9,56.7,177.1,55.7Z"/>
                                    <path class="cls-5" d="M178.1,54.5c1.9-.1,1.9,3.5.3,3.6S176.6,54.6,178.1,54.5Z"/>
                                </g>
                                <path class="cls-5"
                                      d="M168.8,51.8l1.4-.5c.5-.2,1-.3,1.3-.8a.6.6,0,0,0-.1-.9,1.8,1.8,0,0,0-1.9-.2,2.4,2.4,0,0,0-1.6,1.2A.8.8,0,0,0,168.8,51.8Z"/>
                                <path class="cls-5"
                                      d="M179.4,53.4,178,53c-.6-.2-1-.2-1.4-.7a.8.8,0,0,1,0-.9,1.9,1.9,0,0,1,1.9-.4,2.6,2.6,0,0,1,1.7,1.1A.8.8,0,0,1,179.4,53.4Z"/>
                                <path class="cls-5"
                                      d="M168.4,66.4a1.6,1.6,0,0,0,.9.7l1.2-.3c.1,0,.1,0,.1.1a1.6,1.6,0,0,1-1.5.5c-.5-.1-.7-.5-.8-1S168.3,66.3,168.4,66.4Z"/>
                                <path class="cls-5"
                                      d="M174.9,61.6a18,18,0,0,1,0,2.4,20.3,20.3,0,0,0-4.6.2c-.4.1-.3-.2.1-.4a6.6,6.6,0,0,1,3.9-.5c.1-.2-.1-2.6,0-2.6a7,7,0,0,1,1.7.6c0-3.5-.5-7-.5-10.5,0-.2.2-.2.2-.1A54.8,54.8,0,0,1,176.8,62C176.8,62.5,175.2,61.7,174.9,61.6Z"/>
                                <g>
                                    <path class="cls-5"
                                          d="M172.7,63.4s-.8,2-2.1,2.5-2.1-.7-.5-1.9A4.5,4.5,0,0,1,172.7,63.4Z"/>
                                    <path class="cls-11"
                                          d="M171.1,65.6c-.2.2-.3.3-.5.3s-2-.5-.9-1.6S171.3,64.6,171.1,65.6Z"/>
                                </g>
                            </g>
                            <g>
                                <path class="cls-5"
                                      d="M156.1,56.6c1.8.6,3.9-4.9,4.5-7.1s1.1-7.7,1.2-8.1,8,5.2,12.6,3.9,7.7-5.5,7.7-7.5-5.6-6.8-10.6-7-11.6,6-11.6,6,2.2-2.7,2.2-2.9-3.3,1-3.9,3.3a14.5,14.5,0,0,0,.4-2.9c-.2-.1-2.7,2.4-2.2,4.2,0,0-2.8,2.5-3.1,5.3S153.9,55.9,156.1,56.6Z"/>
                                <path class="cls-5"
                                      d="M177.7,44.3a16.3,16.3,0,0,1-4.4,1.5,10.7,10.7,0,0,1-5-.7,17,17,0,0,1-4.3-2.6c-1.2-1-2.2-2.1-3.4-3s-.7.3-.5.5a16.2,16.2,0,0,0,8.4,6.2,9.4,9.4,0,0,0,9.2-1.9Z"/>
                            </g>
                            <g>
                                <path class="cls-6" d="M158,56.1s-2.9-5.8-5.4-4.8-1,8.9,1.6,10.3a2.8,2.8,0,0,0,4-.9Z"/>
                                <path class="cls-5"
                                      d="M153.1,53.6c-.1-.1-.1,0,0,0,1.8,1.1,2.5,3.1,3,5a1.6,1.6,0,0,0-2.3-.7c-.1,0,0,.1,0,.1a1.7,1.7,0,0,1,1.8.9,5.1,5.1,0,0,1,.7,1.7c.1.1.4.1.4-.1h0C157.1,58,155.7,54.2,153.1,53.6Z"/>
                            </g>
                        </g>
                    </g>
                    <g>
                        <g>
                            <path class="cls-6"
                                  d="M139.2,81.8c-1.9,11.4,10.3,49.5,18.2,56.7,11.7,10.6,33.3,17.5,41.2,19.8,3.4,1,12.9-23.1,9.4-24.7-7.4-3.4-30.4-10.5-32.6-12.4S160,100.3,154.1,89.4C146.2,74.6,140.2,76.1,139.2,81.8Z"/>
                            <g>
                                <path class="cls-6"
                                      d="M202.2,131.5s10.2,2.6,16.8,4.6c3.7,1.2,9.8,3.7,12.1,5.7s16.1,18.2,12.5,21.4-12.4-11.6-12.4-11.6,10.5,13.7,5.9,16.4-12.7-14.9-12.7-14.9,10.5,14.3,5.4,16.3-12.2-14-12.2-14,8.9,12.4,5,14.1-12.9-11.9-12.9-11.9c-10.7,2.8-17-.3-21.2-3C187.5,153.9,202.2,131.5,202.2,131.5Z"/>
                                <g>
                                    <path class="cls-5"
                                          d="M227.8,146.7c1.3,1.5,2.6,3.1,3.8,4.8s2.2,3.4,3.2,5.1a30.1,30.1,0,0,1,3.2,7.3,66.7,66.7,0,0,0-6.9-12.1l-3.3-5.1C227.7,146.7,227.8,146.6,227.8,146.7Z"/>
                                    <path class="cls-5"
                                          d="M221.7,150.7c2.2,1.8,6.9,8.3,8.7,12.7.1.2,0,.2-.1,0-1.5-2.2-7.1-10.6-8.6-12.7Z"/>
                                    <path class="cls-5"
                                          d="M215.8,153.2a30.9,30.9,0,0,1,6.5,10.1c0,.1-.1.1-.2-.1-2.1-3.3-3.7-6-6.4-9.9Z"/>
                                </g>
                            </g>
                        </g>
                        <g>
                            <path class="cls-9"
                                  d="M150.3,82.7c-9.1-13-14.5-8.2-12.7,5.8s6.3,28.8,6.3,28.8l23-11.2S156.2,90.9,150.3,82.7Z"/>
                            <g>
                                <path class="cls-3"
                                      d="M155.9,87.7a10.1,10.1,0,0,1,.7,2.3,9.7,9.7,0,0,1,.1,2.4,9.8,9.8,0,0,1-.6-2.3A19.4,19.4,0,0,1,155.9,87.7Z"/>
                                <path class="cls-3"
                                      d="M142.3,95.6l2.3-.7a8.7,8.7,0,0,1,2.3-.1,9,9,0,0,1-2.2.6A9.7,9.7,0,0,1,142.3,95.6Z"/>
                                <path class="cls-3"
                                      d="M142.9,75.5a8.8,8.8,0,0,1-1.2,2.1,11.9,11.9,0,0,1-1.5,1.8,10.3,10.3,0,0,1,1.1-2.1A9.3,9.3,0,0,1,142.9,75.5Z"/>
                                <path class="cls-3"
                                      d="M162.3,101.6a13.9,13.9,0,0,1-1.1,2.1l-1.6,1.8a7.2,7.2,0,0,1,1.2-2.1A8.4,8.4,0,0,1,162.3,101.6Z"/>
                                <path class="cls-3"
                                      d="M146.4,109.5a14.3,14.3,0,0,1-2.1-1.2,12.9,12.9,0,0,1-1.8-1.6,7.2,7.2,0,0,1,2.1,1.2A9,9,0,0,1,146.4,109.5Z"/>
                            </g>
                            <path class="cls-5"
                                  d="M153.4,86.5c1.2,1.7,2.5,3.4,3.8,5l-.9-2.5h.1c.2.6.5,1.3.8,2l.3.9v.2l2.9,3.9q1.8,2.4,3.3,4.8c1.2,1.7,2.3,3.6,3.5,5.2a16.7,16.7,0,0,1-2.3,1.1c-.2.1-.3-.1-.1-.1a15.7,15.7,0,0,0,1.9-1.2c-1.1-1.6-2.4-3.1-3.5-4.6l-3.4-4.8c-2.3-3.2-4.3-6.6-6.6-9.8Z"/>
                            <path class="cls-5"
                                  d="M138.2,97.8l1,2.1.4.8c-.5-2.4-1.1-4.9-1.6-7.4h.1c1,4.1,2.1,8.1,3.1,12.2s2,7.8,2.6,11.8a9.6,9.6,0,0,1,2.1-.8,10.1,10.1,0,0,1-2.3,1.2c-1.3-3.9-2.1-8.3-3-12.3-.3-1.1-.5-2.2-.8-3.3a11.9,11.9,0,0,0-.8-2,18.9,18.9,0,0,1-.9-2.1C138.1,97.8,138.1,97.8,138.2,97.8Z"/>
                            <path class="cls-5"
                                  d="M144.3,113.4c3.2-1.8,16.5-8.7,19.5-10,.2-.1.3,0,.1.1a172.3,172.3,0,0,1-19.6,10C144.3,113.6,144.2,113.5,144.3,113.4Z"/>
                        </g>
                    </g>
                </g>
            </g>
        </g>
        <g id="Folder">
            <g>
                <g>
                    <g>
                        <polygon class="cls-9" points="510.7 376.3 206 376.3 250.1 126.5 554.8 126.5 510.7 376.3"/>
                        <polygon class="cls-9" points="354.4 100.6 254.6 100.6 250.1 126.5 356.8 126.5 354.4 100.6"/>
                    </g>
                    <g class="cls-12">
                        <polygon points="510.7 376.3 206 376.3 250.1 126.5 554.8 126.5 510.7 376.3"/>
                        <polygon points="354.4 100.6 254.6 100.6 250.1 126.5 356.8 126.5 354.4 100.6"/>
                    </g>
                </g>
                <g>
                    <path class="cls-5"
                          d="M243.9,111.1a15.8,15.8,0,0,1-.5-4.3,16.5,16.5,0,0,1,.5-4.4,16.5,16.5,0,0,1,.5,4.4A15.8,15.8,0,0,1,243.9,111.1Z"/>
                    <path class="cls-5"
                          d="M235,113.7a16.7,16.7,0,0,1-2.6-3.5,15.5,15.5,0,0,1-1.7-4,18.7,18.7,0,0,1,2.6,3.5A20,20,0,0,1,235,113.7Z"/>
                    <path class="cls-5"
                          d="M228.6,120.4a20.4,20.4,0,0,1-4-1.8,14.5,14.5,0,0,1-3.5-2.6,15.9,15.9,0,0,1,4,1.8A12.8,12.8,0,0,1,228.6,120.4Z"/>
                    <path class="cls-5"
                          d="M226.4,129.3a15.8,15.8,0,0,1-4.3.5,16.5,16.5,0,0,1-4.4-.5,16.5,16.5,0,0,1,4.4-.5A15.8,15.8,0,0,1,226.4,129.3Z"/>
                    <path class="cls-5"
                          d="M229,138.2a28.8,28.8,0,0,1-3.5,2.6,18.6,18.6,0,0,1-4.1,1.7,23.6,23.6,0,0,1,3.6-2.6A16.1,16.1,0,0,1,229,138.2Z"/>
                    <path class="cls-5"
                          d="M235.6,144.6a20,20,0,0,1-1.7,4,28.8,28.8,0,0,1-2.6,3.5,16.1,16.1,0,0,1,1.7-4A18.7,18.7,0,0,1,235.6,144.6Z"/>
                    <path class="cls-5"
                          d="M244.6,146.8a15.8,15.8,0,0,1,.5,4.3,16.5,16.5,0,0,1-.5,4.4,16.5,16.5,0,0,1-.5-4.4A15.8,15.8,0,0,1,244.6,146.8Z"/>
                    <path class="cls-5"
                          d="M253.4,144.2a16.7,16.7,0,0,1,2.6,3.5,15,15,0,0,1,1.8,4.1,15,15,0,0,1-2.6-3.6A16.2,16.2,0,0,1,253.4,144.2Z"/>
                    <path class="cls-5"
                          d="M259.8,137.6a14.8,14.8,0,0,1,4.1,1.7,16.7,16.7,0,0,1,3.5,2.6,16.1,16.1,0,0,1-4-1.7A23.6,23.6,0,0,1,259.8,137.6Z"/>
                    <path class="cls-5"
                          d="M262,128.6a16.5,16.5,0,0,1,4.4-.5,15.8,15.8,0,0,1,4.3.5,15.8,15.8,0,0,1-4.3.5A16.5,16.5,0,0,1,262,128.6Z"/>
                    <path class="cls-5"
                          d="M259.5,119.8a18.2,18.2,0,0,1,3.5-2.7,20,20,0,0,1,4-1.7,14.5,14.5,0,0,1-3.5,2.6A20.4,20.4,0,0,1,259.5,119.8Z"/>
                    <path class="cls-5"
                          d="M252.8,113.4a18.9,18.9,0,0,1,1.8-4.1,16.7,16.7,0,0,1,2.6-3.5,13.2,13.2,0,0,1-1.8,4A15,15,0,0,1,252.8,113.4Z"/>
                </g>
                <polygon class="cls-9" points="510.3 376.3 204.9 376.3 161.6 135.5 466.9 135.5 510.3 376.3"/>
                <g>
                    <circle class="cls-5 eyes" cx="267.4" cy="270" r="12.7"/>
                    <circle class="cls-5 eyes" cx="367.7" cy="270" r="12.7"/>
                    <path class="cls-5 mouth"
                          d="M335.8,284.8l-.7-1.4c-.1-.1-6.7-12.2-19.8-12.2s-15,11.4-15.1,11.9l-.4,1.4-2.9-.7.4-1.4c0-.2,3.5-14.2,18-14.2s22.1,13.3,22.4,13.8l.7,1.4Z"/>
                </g>
            </g>
        </g>
        <g id="Fly">
            <g>
                <g>
                    <path class="cls-13" d="M490,268.6l1.9-.5"/>
                    <path class="cls-14"
                          d="M495.8,267c15.3-5.2,28.1-17.2,29.3-31.3,2.6-31-35.1-48.1-31.2-83.9,3.7-34.2,39.5-36.6,53.9-31.9,15.9,5.2,10.4,20.5-3.9,18.5-24.9-3.4-40.6-30.5-28.8-61.2C524,54.2,546,45.6,555,42.9"/>
                    <path class="cls-13" d="M556.9,42.4l1.9-.4"/>
                </g>
                <g>
                    <path class="cls-5" d="M574.7,36.4c-2.6-7.9-19.6-5-16.3,5.3S577.3,44.3,574.7,36.4Z"/>
                    <g>
                        <path class="cls-1"
                              d="M549.1,33.2c.1-3.4,5-6.1,11.8-4.9s13.2,5.9,13.2,5.9-6.7,4.1-13.6,4.8S549,36.7,549.1,33.2Z"/>
                        <g>
                            <path class="cls-5"
                                  d="M574.1,34.2,563.5,34c-3.5-.2-7.1-.3-10.6-.6l10.6.2C567.1,33.7,570.6,33.9,574.1,34.2Z"/>
                            <path class="cls-5"
                                  d="M556,30.2a20.9,20.9,0,0,1,2.9,1.6,26.1,26.1,0,0,1,2.7,1.9,16.4,16.4,0,0,1-2.9-1.6A26.1,26.1,0,0,1,556,30.2Z"/>
                            <path class="cls-5"
                                  d="M565.2,33.8a29.2,29.2,0,0,1-2.8,2.1,30.7,30.7,0,0,1-3.1,1.7l2.9-2C563.2,35,564.2,34.3,565.2,33.8Z"/>
                            <path class="cls-5"
                                  d="M566.3,31.9a11,11,0,0,1,1.4.9,4.3,4.3,0,0,1,1.1,1.2l-1.4-.9A6.3,6.3,0,0,1,566.3,31.9Z"/>
                        </g>
                    </g>
                    <g>
                        <path class="cls-1"
                              d="M555.6,53.8c2.1,2.8,7.6,2.1,12.4-2.9s7.4-12.5,7.4-12.5-7.9.6-13.9,4.1S553.5,51.1,555.6,53.8Z"/>
                        <g>
                            <path class="cls-5"
                                  d="M575.4,38.4l-8.5,6.4c-2.8,2.2-5.6,4.4-8.3,6.7l8.5-6.4C569.9,42.9,572.7,40.7,575.4,38.4Z"/>
                            <path class="cls-5"
                                  d="M563,52.3c.5-1,1-2,1.4-3s.8-2.1,1.1-3.2c-.6,1-1,2-1.5,3A19.7,19.7,0,0,0,563,52.3Z"/>
                            <path class="cls-5" d="M568.3,43.9c-1.1-.1-2.3,0-3.5,0l-3.4.4c1.1.1,2.3,0,3.5,0Z"/>
                            <path class="cls-5"
                                  d="M570.3,44.9a4.4,4.4,0,0,0,.6-1.6,4.1,4.1,0,0,0,.3-1.6,4.7,4.7,0,0,0-.6,1.5A5.1,5.1,0,0,0,570.3,44.9Z"/>
                        </g>
                    </g>
                    <path class="cls-15"
                          d="M574.7,36.4a3,3,0,0,1-3.8-1.9,3,3,0,0,1,2-3.8,3,3,0,0,1,3.7,2A2.9,2.9,0,0,1,574.7,36.4Z"/>
                    <path class="cls-15"
                          d="M576.5,42.1a2.9,2.9,0,0,1-3.7-1.9,3,3,0,0,1,1.9-3.8,3,3,0,0,1,3.8,2A3,3,0,0,1,576.5,42.1Z"/>
                </g>
            </g>
        </g>
        <g id="Speech_Bubble" data-name="Speech Bubble">
            <g>
                <g>
                    <path class="cls-3"
                          d="M248.7,39.6a24.9,24.9,0,0,1-41.6,15.8l-12.5,1.8,6.2-10.8a25.5,25.5,0,0,1-1.7-12,24.9,24.9,0,1,1,49.6,5.2Z"/>
                    <path class="cls-5"
                          d="M248.7,39.6a25.3,25.3,0,0,1-5,12.6,19.4,19.4,0,0,1-2.3,2.6,25.3,25.3,0,0,1-2.6,2.2,21.1,21.1,0,0,1-6,3.4,27.2,27.2,0,0,1-6.7,1.6,20.8,20.8,0,0,1-3.5.1l-3.5-.4a25.6,25.6,0,0,1-12.3-6.1h.3l-12.5,1.9-.9.2.5-.8,6.2-10.8v.4a25.2,25.2,0,0,1,1.5-22.2,24.8,24.8,0,0,1,7.8-8.3,24.5,24.5,0,0,1,10.7-4,25.1,25.1,0,0,1,11.2,1,25.7,25.7,0,0,1,9.6,5.9A25.1,25.1,0,0,1,248.7,39.6Zm0,0a25,25,0,0,0-7.6-20.5,25.3,25.3,0,0,0-9.6-5.7,26.1,26.1,0,0,0-11.1-.8,24.3,24.3,0,0,0-10.3,4.1,25,25,0,0,0-7.4,8.1,24.2,24.2,0,0,0-1.4,21.4v.2l-.2.2L195,57.4l-.5-.7L207,55h.3a24.7,24.7,0,0,0,11.9,6.1,13.2,13.2,0,0,0,3.4.4,12.9,12.9,0,0,0,3.4,0,25,25,0,0,0,6.7-1.4,23.4,23.4,0,0,0,6-3.3,17.8,17.8,0,0,0,2.6-2.2,27.3,27.3,0,0,0,2.3-2.5A26.4,26.4,0,0,0,248.7,39.6Z"/>
                </g>
                <g>
                    <path class="cls-9 warnings"
                          d="M211.7,48.6a2.4,2.4,0,0,1,2.5-2.5,2.3,2.3,0,0,1,2.4,2.5,2.5,2.5,0,1,1-4.9,0Zm1.1-5.9-.6-19.8h3.9l-.5,19.8Z"/>
                    <path class="cls-9 warnings"
                          d="M221.2,48.6a2.4,2.4,0,0,1,2.5-2.5,2.3,2.3,0,0,1,2.4,2.5,2.4,2.4,0,0,1-2.4,2.6A2.4,2.4,0,0,1,221.2,48.6Zm1.1-5.9-.6-19.8h3.9l-.5,19.8Z"/>
                    <path class="cls-9 warnings"
                          d="M230.7,48.6a2.4,2.4,0,0,1,2.5-2.5,2.3,2.3,0,0,1,2.4,2.5,2.4,2.4,0,0,1-2.4,2.6A2.4,2.4,0,0,1,230.7,48.6Zm1.1-5.9-.6-19.8h4l-.6,19.8Z"/>
                </g>
            </g>
            <g>
                <path class="cls-16"
                      d="M363.1,216a4.9,4.9,0,0,1-3.5-1.5,5.2,5.2,0,0,1-1.4-3.5v-7.5H340.7a5.2,5.2,0,0,1-4.3-2.5,4.9,4.9,0,0,1-.1-4.9l20-37.5a5,5,0,0,1,4.3-2.7h2.5a4.9,4.9,0,0,1,3.6,1.5,4.7,4.7,0,0,1,1.5,3.5v32.5h2.5a4.9,4.9,0,0,1,3.5,1.5,4.9,4.9,0,0,1,1.5,3.6,5.1,5.1,0,0,1-5,5h-2.5V211a4.9,4.9,0,0,1-1.5,3.5A4.9,4.9,0,0,1,363.1,216Zm-4.9-39.8L349,193.4h9.2Z"/>
                <path class="cls-16"
                      d="M415,163.1c3.7,4.8,5.6,10.7,5.6,17.8v10q0,10.9-5.7,18c-3.8,4.7-8.5,7.1-14.3,7.1a17.1,17.1,0,0,1-10.3-3.3,21.6,21.6,0,0,1-7-8.9,29.8,29.8,0,0,1-2.6-12.9v-10a29.6,29.6,0,0,1,2.7-12.8,20.6,20.6,0,0,1,7.2-8.9,16.4,16.4,0,0,1,10-3.3C406.1,155.9,410.8,158.3,415,163.1Zm-4.3,27.8v-10a21,21,0,0,0-1.2-7,13.6,13.6,0,0,0-3.4-5.7,7.4,7.4,0,0,0-5.5-2.2,7.2,7.2,0,0,0-5.4,2.2,14.7,14.7,0,0,0-3.4,5.7,21,21,0,0,0-1.2,7v10a19.5,19.5,0,0,0,2.7,10.7,8.3,8.3,0,0,0,7.3,4.3,8.4,8.4,0,0,0,7.3-4.2C409.8,198.9,410.7,195.3,410.7,190.9Z"/>
                <path class="cls-16"
                      d="M453,216a4.5,4.5,0,0,1-3.5-1.5A4.9,4.9,0,0,1,448,211v-7.5H430.5a5,5,0,0,1-4.2-2.5,4.7,4.7,0,0,1-.7-2.5,6,6,0,0,1,.5-2.4l20-37.5a5.1,5.1,0,0,1,4.4-2.7H453a4.5,4.5,0,0,1,3.5,1.5,4.7,4.7,0,0,1,1.5,3.5v32.5h2.5a4.5,4.5,0,0,1,3.5,1.5,4.9,4.9,0,0,1,1.5,3.6A4.9,4.9,0,0,1,464,202a4.5,4.5,0,0,1-3.5,1.5H458V211a4.9,4.9,0,0,1-1.5,3.5A4.5,4.5,0,0,1,453,216Zm-5-39.8-9.2,17.2H448Z"/>
            </g>
        </g>
    </g>
</svg>
